<?xml version="1.0" encoding="UTF-8"?>
<svg width="12px" height="12px" viewBox="0 0 12 12" version="1.1" xmlns="http://www.w3.org/2000/svg" xmlns:xlink="http://www.w3.org/1999/xlink">
    <!-- Generator: Sketch 41.2 (35397) - http://www.bohemiancoding.com/sketch -->
    <title>View_Project_Icon_Large</title>
    <desc>Created with Sketch.</desc>
    <defs></defs>
    <g id="Website" stroke="none" stroke-width="1" fill="none" fill-rule="evenodd">
        <g id="Detail_Complete" transform="translate(-271.000000, -615.000000)" fill="#FE4902">
            <g id="View_Project_Icon_Large" transform="translate(271.000000, 615.000000)">
                <path d="M9.71848485,1.18181818 L5.40130303,5.499 C5.14819697,5.75210606 5.14740909,6.16456061 5.40130303,6.41845455 C5.65519697,6.67156061 6.06686364,6.67234848 6.32075758,6.41845455 L10.6363636,2.10284848 L10.6363636,3.54624242 C10.6363636,3.87163636 10.9010909,4.13636364 11.2272727,4.13636364 C11.5526667,4.13636364 11.8181818,3.87163636 11.8181818,3.54624242 L11.8181818,0.590121212 C11.8181818,0.427818182 11.752,0.280090909 11.6450455,0.173136364 C11.5380909,0.0661818182 11.3903636,0 11.2280606,0 L8.27193939,0 C7.94654545,0 7.68181818,0.264727273 7.68181818,0.590909091 C7.68181818,0.91630303 7.94654545,1.18181818 8.27193939,1.18181818 L9.71848485,1.18181818 Z M11.8181818,7.09090909 L11.8181818,4.28172727 L11.8181818,10.3454394 C11.8181818,11.1587273 11.231803,11.8181818 10.5087273,11.8181818 L1.30945455,11.8181818 C0.586378788,11.8181818 0,11.1573485 0,10.3454394 L0,1.47274242 C0,0.659454545 0.586378788,0 1.30945455,0 L7.618,0 L4.72727273,0 C5.05345455,0 5.31818182,0.264727273 5.31818182,0.590909091 C5.31818182,0.917090909 5.05345455,1.18181818 4.72727273,1.18181818 L1.51804545,1.18181818 C1.33033333,1.18181818 1.18181818,1.35810606 1.18181818,1.57575758 L1.18181818,10.2424242 C1.18181818,10.4563333 1.33269697,10.6363636 1.51804545,10.6363636 L10.3001364,10.6363636 C10.4878485,10.6363636 10.6363636,10.4600758 10.6363636,10.2424242 L10.6363636,7.09090909 C10.6363636,6.76472727 10.9010909,6.5 11.2272727,6.5 C11.5534545,6.5 11.8181818,6.76472727 11.8181818,7.09090909 Z" id="Page-1"></path>
            </g>
        </g>
    </g>
</svg>