<?xml version="1.0" encoding="UTF-8"?>
<svg width="11px" height="15px" viewBox="0 0 11 15" version="1.1" xmlns="http://www.w3.org/2000/svg" xmlns:xlink="http://www.w3.org/1999/xlink">
    <!-- Generator: Sketch 41.2 (35397) - http://www.bohemiancoding.com/sketch -->
    <title>Fill 176</title>
    <desc>Created with Sketch.</desc>
    <defs></defs>
    <g id="Website" stroke="none" stroke-width="1" fill="none" fill-rule="evenodd" opacity="0.5">
        <g id="Home" transform="translate(-208.000000, -1617.000000)" fill="#32333A">
            <path d="M212.537885,1626.41045 C212.164766,1628.36805 211.709363,1630.24599 210.361595,1631.22764 C209.945915,1628.26704 210.973056,1626.0434 211.44974,1623.68318 C210.636823,1622.3103 211.54763,1619.54888 213.262842,1620.22892 C215.372453,1621.06688 211.435553,1625.33206 214.078596,1625.86414 C216.837974,1626.42041 217.964424,1621.06261 216.253468,1619.31983 C213.780669,1616.80454 209.056388,1619.26292 209.636638,1622.86514 C209.778508,1623.74578 210.685059,1624.01324 209.999825,1625.22821 C208.416553,1624.87681 207.944125,1623.62485 208.005129,1621.95605 C208.10302,1619.22451 210.452392,1617.31243 212.808857,1617.04781 C215.789552,1616.71349 218.585816,1618.1447 218.973122,1620.95591 C219.407245,1624.1299 217.628191,1627.56566 214.440366,1627.31812 C213.576376,1627.25125 213.214606,1626.82303 212.537885,1626.41045" id="Fill-176"></path>
        </g>
    </g>
</svg>