<?xml version="1.0" encoding="UTF-8"?>
<svg width="18px" height="15px" viewBox="0 0 18 15" version="1.1" xmlns="http://www.w3.org/2000/svg" xmlns:xlink="http://www.w3.org/1999/xlink">
    <!-- Generator: Sketch 41.2 (35397) - http://www.bohemiancoding.com/sketch -->
    <title>Fill 211</title>
    <desc>Created with Sketch.</desc>
    <defs></defs>
    <g id="Website" stroke="none" stroke-width="1" fill="none" fill-rule="evenodd" opacity="0.5">
        <g id="Home" transform="translate(-241.000000, -1617.000000)" fill="#32333A">
            <path d="M258.45071,1618.68338 C257.807689,1618.9687 257.117248,1619.16272 256.394561,1619.24832 C257.132422,1618.80512 257.701467,1618.10133 257.968918,1617.26249 C257.276581,1617.67335 256.510267,1617.97389 255.694636,1618.13367 C255.042131,1617.43559 254.110794,1617 253.080823,1617 C251.10434,1617 249.501531,1618.6073 249.501531,1620.59122 C249.501531,1620.87274 249.53188,1621.14664 249.594475,1621.40914 C246.61837,1621.25887 243.979898,1619.83037 242.213962,1617.65814 C241.906678,1618.18693 241.730274,1618.80512 241.730274,1619.46326 C241.730274,1620.70725 242.361914,1621.80668 243.321703,1622.4515 C242.735587,1622.43248 242.183613,1622.2708 241.699925,1622.0026 L241.699925,1622.04635 C241.699925,1623.7868 242.934753,1625.23812 244.571705,1625.56719 C244.272008,1625.64898 243.95524,1625.69273 243.628987,1625.69273 C243.397576,1625.69273 243.173751,1625.67181 242.955618,1625.62806 C243.410853,1627.05466 244.732934,1628.09322 246.299705,1628.12175 C245.074361,1629.08613 243.530353,1629.65867 241.853567,1629.65867 C241.565251,1629.65867 241.278832,1629.64155 241,1629.60922 C242.583842,1630.62686 244.465483,1631.22222 246.48749,1631.22222 C253.073236,1631.22222 256.67529,1625.7517 256.67529,1621.00588 C256.67529,1620.85181 256.671496,1620.69584 256.663909,1620.54177 C257.363834,1620.0358 257.970815,1619.40429 258.45071,1618.68338" id="Fill-211"></path>
        </g>
    </g>
</svg>