<?xml version="1.0" encoding="UTF-8"?>
<svg width="14px" height="14px" viewBox="0 0 14 14" version="1.1" xmlns="http://www.w3.org/2000/svg" xmlns:xlink="http://www.w3.org/1999/xlink">
    <!-- Generator: Sketch 41.2 (35397) - http://www.bohemiancoding.com/sketch -->
    <title>Page 1</title>
    <desc>Created with Sketch.</desc>
    <defs></defs>
    <g id="Website" stroke="none" stroke-width="1" fill="none" fill-rule="evenodd" fill-opacity="0.5">
        <g id="Detail_Complete" transform="translate(-205.000000, -2077.000000)" fill="#32333A">
            <path d="M207.462632,2082.92562 L207.796407,2082.92562 C208.228169,2084.31097 209.34101,2085.37704 210.742982,2085.74928 L210.742982,2086.90889 L209.972226,2086.90889 C209.608301,2086.90889 209.312213,2087.20401 209.312213,2087.56871 L209.312213,2088.30467 L209.066182,2088.30467 C208.702257,2088.30467 208.406363,2088.59999 208.406363,2088.96469 L208.406363,2090.34153 C208.407136,2090.70546 208.702257,2091 209.066182,2091 L214.574341,2091 C214.938266,2091 215.23416,2090.70469 215.23416,2090.34018 L215.23416,2088.96314 C215.233387,2088.59922 214.938266,2088.30467 214.574341,2088.30467 L214.32831,2088.30467 L214.32831,2087.57161 C214.32831,2087.20787 214.032995,2086.91179 213.668297,2086.91179 L212.897542,2086.91179 L212.897542,2085.75217 C214.295068,2085.38091 215.404817,2084.32083 215.839671,2082.94147 L216.177119,2082.94147 C217.53831,2082.94147 218.641295,2081.83848 218.641295,2080.47729 L218.641295,2078.63679 C218.641295,2078.29335 218.362795,2078.01466 218.019163,2078.01466 L216.03294,2078.01466 L216.03294,2077.41901 C216.03294,2077.18805 215.845663,2077 215.613934,2077 L208.02659,2077 C207.795634,2077 207.607583,2077.18805 207.607583,2077.41901 L207.607583,2077.99881 L205.622134,2077.99881 C205.277729,2077.99881 204.999229,2078.27828 205.000002,2078.62249 L205.000002,2080.46299 C205.000775,2081.82263 206.102986,2082.92504 207.462632,2082.92562 Z M216.03294,2081.68078 L216.03294,2079.26047 L217.395678,2079.26047 L217.395678,2080.47806 C217.394905,2081.15006 216.849694,2081.69508 216.177892,2081.69585 L216.03294,2081.69585 L216.03294,2081.68078 Z M210.208401,2080.66611 L210.208401,2080.66611 C210.237198,2080.57624 210.314892,2080.51131 210.408434,2080.49778 L211.230599,2080.37621 L211.597616,2079.63251 C211.688066,2079.44756 211.951684,2079.44756 212.042134,2079.63251 L212.409925,2080.37621 L213.230544,2080.49469 C213.434442,2080.52348 213.515808,2080.77473 213.367958,2080.91833 L212.77385,2081.49814 L212.918801,2082.31566 C212.94354,2082.46738 212.827385,2082.60479 212.674123,2082.60557 C212.633343,2082.60557 212.59411,2082.59571 212.557775,2082.57696 L211.820262,2082.1941 L211.08642,2082.57909 C210.903781,2082.67727 210.688673,2082.52111 210.725588,2082.31644 L210.870539,2081.49891 L210.276431,2080.9191 C210.207627,2080.85494 210.181343,2080.75676 210.208401,2080.66611 Z M206.244072,2079.2452 L207.60681,2079.2452 L207.60681,2081.68078 L207.461859,2081.68078 C206.790057,2081.68 206.244845,2081.13498 206.244072,2080.46299 L206.244072,2079.2452 Z" id="Page-1"></path>
        </g>
    </g>
</svg>