<?xml version="1.0" encoding="UTF-8"?>
<svg width="17px" height="6px" viewBox="0 0 17 6" version="1.1" xmlns="http://www.w3.org/2000/svg" xmlns:xlink="http://www.w3.org/1999/xlink">
    <!-- Generator: Sketch 41.2 (35397) - http://www.bohemiancoding.com/sketch -->
    <title>.PDF</title>
    <desc>Created with Sketch.</desc>
    <defs></defs>
    <g id="_Templates" stroke="none" stroke-width="1" fill="none" fill-rule="evenodd">
        <g id="About" transform="translate(-211.000000, -620.000000)" fill="#98999C">
            <path d="M211.507812,625.679688 C211.789062,625.679688 212.015625,625.449219 212.015625,625.171875 C212.015625,624.890625 211.789062,624.664062 211.507812,624.664062 C211.230469,624.664062 211,624.890625 211,625.171875 C211,625.449219 211.230469,625.679688 211.507812,625.679688 Z M212.959375,620.003906 L212.959375,625.640625 L214.392969,625.640625 L214.392969,623.988281 L215.342187,623.988281 C216.596094,623.988281 217.459375,623.203125 217.459375,622.003906 C217.459375,620.792969 216.639062,620.003906 215.428125,620.003906 L212.959375,620.003906 Z M214.392969,621.105469 L215.049219,621.105469 C215.654687,621.105469 216.010156,621.414062 216.010156,622.007812 C216.010156,622.59375 215.650781,622.90625 215.041406,622.90625 L214.392969,622.90625 L214.392969,621.105469 Z M218.110156,620 L218.110156,625.640625 L220.477344,625.640625 C222.172656,625.640625 223.114062,624.617188 223.114062,622.765625 C223.114062,621.003906 222.157031,620 220.477344,620 L218.110156,620 Z M219.54375,621.152344 L220.219531,621.152344 C221.121875,621.152344 221.653125,621.742188 221.653125,622.792969 C221.653125,623.910156 221.149219,624.488281 220.219531,624.488281 L219.54375,624.488281 L219.54375,621.152344 Z M225.210156,625.640625 L225.210156,623.539062 L227.389844,623.539062 L227.389844,622.441406 L225.210156,622.441406 L225.210156,621.15625 L227.6125,621.15625 L227.6125,620.003906 L223.776563,620.003906 L223.776563,625.640625 L225.210156,625.640625 Z" id=".PDF"></path>
        </g>
    </g>
</svg>