<?xml version="1.0" encoding="UTF-8"?>
<svg width="20px" height="14px" viewBox="0 0 20 14" version="1.1" xmlns="http://www.w3.org/2000/svg" xmlns:xlink="http://www.w3.org/1999/xlink">
    <!-- Generator: Sketch 41.2 (35397) - http://www.bohemiancoding.com/sketch -->
    <title>Page 1</title>
    <desc>Created with Sketch.</desc>
    <defs></defs>
    <g id="Website" stroke="none" stroke-width="1" fill="none" fill-rule="evenodd">
        <g id="Detail_Complete" transform="translate(-210.000000, -452.000000)" fill="#FE4902">
            <path d="M210.696429,452.92 C210.319119,452.92 210,453.239119 210,453.616429 L210,465.223571 C210,465.600881 210.319119,465.92 210.696429,465.92 L229.267857,465.92 C229.645167,465.92 229.964286,465.600881 229.964286,465.223571 L229.964286,453.616429 C229.964286,453.239119 229.645167,452.92 229.267857,452.92 L210.696429,452.92 Z M210.928571,453.848571 L229.035714,453.848571 L229.035714,454.537881 L219.982143,461.161071 L210.928571,454.537881 L210.928571,453.848571 Z M210.928571,455.691167 L219.706357,462.11131 C219.871024,462.232333 220.093262,462.232333 220.257929,462.11131 L229.035714,455.691167 L229.035714,464.991429 L210.928571,464.991429 L210.928571,455.691167 Z" id="Page-1"></path>
        </g>
    </g>
</svg>