<?xml version="1.0" encoding="UTF-8"?>
<svg width="14px" height="9px" viewBox="0 0 14 9" version="1.1" xmlns="http://www.w3.org/2000/svg" xmlns:xlink="http://www.w3.org/1999/xlink">
    <!-- Generator: Sketch 41.2 (35397) - http://www.bohemiancoding.com/sketch -->
    <title>Page 1</title>
    <desc>Created with Sketch.</desc>
    <defs></defs>
    <g id="Website" stroke="none" stroke-width="1" fill="none" fill-rule="evenodd" opacity="0.5">
        <g id="About" transform="translate(-209.000000, -468.000000)" fill="#FFFFFF">
            <path d="M209.482143,468 C209.220929,468 209,468.220929 209,468.482143 L209,476.517857 C209,476.779071 209.220929,477 209.482143,477 L222.339286,477 C222.6005,477 222.821429,476.779071 222.821429,476.517857 L222.821429,468.482143 C222.821429,468.220929 222.6005,468 222.339286,468 L209.482143,468 Z M209.642857,468.642857 L222.178571,468.642857 L222.178571,469.120071 L215.910714,473.705357 L209.642857,469.120071 L209.642857,468.642857 Z M209.642857,469.9185 L215.719786,474.363214 C215.833786,474.447 215.987643,474.447 216.101643,474.363214 L222.178571,469.9185 L222.178571,476.357143 L209.642857,476.357143 L209.642857,469.9185 Z" id="Page-1"></path>
        </g>
    </g>
</svg>