<?xml version="1.0" encoding="UTF-8"?>
<svg width="21px" height="20px" viewBox="0 0 21 20" version="1.1" xmlns="http://www.w3.org/2000/svg" xmlns:xlink="http://www.w3.org/1999/xlink">
    <!-- Generator: Sketch 41.2 (35397) - http://www.bohemiancoding.com/sketch -->
    <title>Fill 3</title>
    <desc>Created with Sketch.</desc>
    <defs></defs>
    <g id="Website" stroke="none" stroke-width="1" fill="none" fill-rule="evenodd">
        <g id="Detail_Complete" transform="translate(-379.000000, -921.000000)" fill="#263545">
            <path d="M389.136723,921 C383.53937,921 379,925.538748 379,931.137968 C379,935.616971 381.904475,939.416375 385.932901,940.756902 C386.440111,940.850253 386.624947,940.537215 386.624947,940.268362 C386.624947,940.028138 386.616234,939.390236 386.611255,938.544472 C383.791419,939.156858 383.196459,937.185275 383.196459,937.185275 C382.735303,936.014026 382.07064,935.702232 382.07064,935.702232 C381.150195,935.073665 382.140343,935.086112 382.140343,935.086112 C383.157874,935.157682 383.693089,936.131026 383.693089,936.131026 C384.597353,937.680038 386.066083,937.232573 386.643617,936.973056 C386.735724,936.318351 386.99773,935.871509 387.28712,935.618215 C385.036105,935.362432 382.669334,934.492397 382.669334,930.607732 C382.669334,929.501206 383.064522,928.595697 383.713004,927.88747 C383.60845,927.631065 383.26056,926.599843 383.812579,925.204549 C383.812579,925.204549 384.663322,924.931963 386.600053,926.243862 C387.408477,926.018574 388.276023,925.906552 389.137968,925.902196 C389.999291,925.906552 390.866215,926.018574 391.675883,926.243862 C393.61137,924.931963 394.460868,925.204549 394.460868,925.204549 C395.014131,926.599843 394.666241,927.631065 394.56231,927.88747 C395.212036,928.595697 395.604112,929.501206 395.604112,930.607732 C395.604112,934.502354 393.233607,935.359321 390.975747,935.610125 C391.339195,935.923163 391.663436,936.541772 391.663436,937.487734 C391.663436,938.842575 391.650989,939.936031 391.650989,940.268362 C391.650989,940.539704 391.833958,940.855232 392.348013,940.756279 C396.373328,939.412641 399.275313,935.615726 399.275313,931.137968 C399.275313,925.538748 394.735943,921 389.136723,921" id="Fill-3"></path>
        </g>
    </g>
</svg>