<?xml version="1.0" encoding="UTF-8"?>
<svg width="13px" height="16px" viewBox="0 0 13 16" version="1.1" xmlns="http://www.w3.org/2000/svg" xmlns:xlink="http://www.w3.org/1999/xlink">
    <!-- Generator: Sketch 41.2 (35397) - http://www.bohemiancoding.com/sketch -->
    <title>Page 1</title>
    <desc>Created with Sketch.</desc>
    <defs></defs>
    <g id="Website" stroke="none" stroke-width="1" fill="none" fill-rule="evenodd">
        <g id="Detail_Complete" transform="translate(-209.000000, -85.000000)" fill="#32333A">
            <path d="M221.804896,91.3482585 L215.955104,85.8558105 C215.695104,85.6282585 215.304896,85.6282585 215.077552,85.8558105 L209.227552,91.2182585 C209.064896,91.3482585 209,91.5107065 209,91.6731545 L209,99.7331545 C209,100.253155 209.422448,100.643363 209.91,100.643363 L209.942448,100.643363 L213.224896,100.643363 C213.582448,100.643363 213.875104,100.350707 213.875104,99.9931545 L213.875104,96.4182585 L217.124896,96.4182585 L217.124896,99.9931545 C217.124896,100.350707 217.417552,100.643363 217.775104,100.643363 L221.057552,100.643363 C221.544896,100.675811 221.967552,100.285811 222,99.7658105 C222,99.7658105 222,99.7658105 222,99.7331545 L222,91.8358105 C222,91.6407065 221.935104,91.4782585 221.804896,91.3482585 Z" id="Page-1"></path>
        </g>
    </g>
</svg>