<?xml version="1.0" encoding="UTF-8"?>
<svg width="16px" height="16px" viewBox="0 0 16 16" version="1.1" xmlns="http://www.w3.org/2000/svg" xmlns:xlink="http://www.w3.org/1999/xlink">
    <!-- Generator: Sketch 41.2 (35397) - http://www.bohemiancoding.com/sketch -->
    <title>Fill 213</title>
    <desc>Created with Sketch.</desc>
    <defs></defs>
    <g id="Website" stroke="none" stroke-width="1" fill="none" fill-rule="evenodd">
        <g id="Detail_Complete" transform="translate(-282.000000, -923.000000)" fill="#263545">
            <path d="M292.352865,930.55538 C292.352865,929.002274 291.09759,927.744186 289.549348,927.744186 C288.000756,927.744186 286.745832,929.002274 286.745832,930.55538 C286.745832,932.10708 288.000756,933.366925 289.549348,933.366925 C291.09759,933.366925 292.352865,932.10708 292.352865,930.55538 L292.352865,930.55538 Z M295.880214,925.916796 C295.880214,926.148734 295.691327,926.338326 295.460037,926.338326 L294.198104,926.338326 C293.967165,926.338326 293.777577,926.148734 293.777577,925.916796 L293.777577,924.65168 C293.777577,924.417984 293.967165,924.229798 294.198104,924.229798 L295.460037,924.229798 C295.691327,924.229798 295.880214,924.417984 295.880214,924.65168 L295.880214,925.916796 L295.880214,925.916796 Z M294.729371,923 L284.369501,923 C283.068319,923 282.014898,924.056021 282.014898,925.359793 L282.014898,927.919721 L285.829082,927.919721 C286.654192,926.749664 288.012496,925.98708 289.549348,925.98708 C291.086026,925.98708 292.444329,926.749664 293.269089,927.919721 L297.083799,927.919721 L297.083799,925.359793 C297.083799,924.056021 296.029151,923 294.729371,923 L294.729371,923 Z M294.105063,930.55538 C294.105063,933.07876 292.065154,935.124031 289.549348,935.124031 C287.033017,935.124031 284.993634,933.07876 284.993634,930.55538 C284.993634,930.253333 285.023421,929.959897 285.078615,929.677003 L282.014898,929.677003 L282.014898,935.749561 C282.014898,937.053333 283.068319,938.111111 284.369501,938.111111 L294.729371,938.111111 C296.029151,938.111111 297.083799,937.053333 297.083799,935.749561 L297.083799,929.677003 L294.019906,929.677003 C294.075275,929.959897 294.105063,930.253333 294.105063,930.55538 L294.105063,930.55538 Z" id="Fill-213"></path>
        </g>
    </g>
</svg>