<?xml version="1.0" encoding="UTF-8"?>
<svg width="16px" height="16px" viewBox="0 0 16 16" version="1.1" xmlns="http://www.w3.org/2000/svg" xmlns:xlink="http://www.w3.org/1999/xlink">
    <!-- Generator: Sketch 41.2 (35397) - http://www.bohemiancoding.com/sketch -->
    <title>Fill 213</title>
    <desc>Created with Sketch.</desc>
    <defs></defs>
    <g id="Website" stroke="none" stroke-width="1" fill="none" fill-rule="evenodd" opacity="0.400000006">
        <g id="Mobile-Portrait_A_Rotator" transform="translate(-95.000000, -877.000000)" fill="#2D2D2D">
            <path d="M105.352865,884.55538 C105.352865,883.002274 104.09759,881.744186 102.549348,881.744186 C101.000756,881.744186 99.7458317,883.002274 99.7458317,884.55538 C99.7458317,886.10708 101.000756,887.366925 102.549348,887.366925 C104.09759,887.366925 105.352865,886.10708 105.352865,884.55538 L105.352865,884.55538 Z M108.880214,879.916796 C108.880214,880.148734 108.691327,880.338326 108.460037,880.338326 L107.198104,880.338326 C106.967165,880.338326 106.777577,880.148734 106.777577,879.916796 L106.777577,878.65168 C106.777577,878.417984 106.967165,878.229798 107.198104,878.229798 L108.460037,878.229798 C108.691327,878.229798 108.880214,878.417984 108.880214,878.65168 L108.880214,879.916796 L108.880214,879.916796 Z M107.729371,877 L97.369501,877 C96.0683189,877 95.0148976,878.056021 95.0148976,879.359793 L95.0148976,881.919721 L98.8290818,881.919721 C99.6541918,880.749664 101.012496,879.98708 102.549348,879.98708 C104.086026,879.98708 105.444329,880.749664 106.269089,881.919721 L110.083799,881.919721 L110.083799,879.359793 C110.083799,878.056021 109.029151,877 107.729371,877 L107.729371,877 Z M107.105063,884.55538 C107.105063,887.07876 105.065154,889.124031 102.549348,889.124031 C100.033017,889.124031 97.9936339,887.07876 97.9936339,884.55538 C97.9936339,884.253333 98.0234212,883.959897 98.0786155,883.677003 L95.0148976,883.677003 L95.0148976,889.749561 C95.0148976,891.053333 96.0683189,892.111111 97.369501,892.111111 L107.729371,892.111111 C109.029151,892.111111 110.083799,891.053333 110.083799,889.749561 L110.083799,883.677003 L107.019906,883.677003 C107.075275,883.959897 107.105063,884.253333 107.105063,884.55538 L107.105063,884.55538 Z" id="Fill-213"></path>
        </g>
    </g>
</svg>