<?xml version="1.0" encoding="UTF-8"?>
<svg width="16px" height="16px" viewBox="0 0 16 16" version="1.1" xmlns="http://www.w3.org/2000/svg" xmlns:xlink="http://www.w3.org/1999/xlink">
    <!-- Generator: Sketch 41.2 (35397) - http://www.bohemiancoding.com/sketch -->
    <title>Fill 213</title>
    <desc>Created with Sketch.</desc>
    <defs></defs>
    <g id="Website" stroke="none" stroke-width="1" fill="none" fill-rule="evenodd" opacity="0.5">
        <g id="Home" transform="translate(-282.000000, -1617.000000)" fill="#32333A">
            <path d="M292.337967,1624.55538 C292.337967,1623.00227 291.082693,1621.74419 289.534451,1621.74419 C287.985858,1621.74419 286.730934,1623.00227 286.730934,1624.55538 C286.730934,1626.10708 287.985858,1627.36693 289.534451,1627.36693 C291.082693,1627.36693 292.337967,1626.10708 292.337967,1624.55538 L292.337967,1624.55538 Z M295.865317,1619.9168 C295.865317,1620.14873 295.67643,1620.33833 295.44514,1620.33833 L294.183207,1620.33833 C293.952267,1620.33833 293.762679,1620.14873 293.762679,1619.9168 L293.762679,1618.65168 C293.762679,1618.41798 293.952267,1618.2298 294.183207,1618.2298 L295.44514,1618.2298 C295.67643,1618.2298 295.865317,1618.41798 295.865317,1618.65168 L295.865317,1619.9168 L295.865317,1619.9168 Z M294.714473,1617 L284.354603,1617 C283.053421,1617 282,1618.05602 282,1619.35979 L282,1621.91972 L285.814184,1621.91972 C286.639294,1620.74966 287.997598,1619.98708 289.534451,1619.98708 C291.071128,1619.98708 292.429432,1620.74966 293.254191,1621.91972 L297.068901,1621.91972 L297.068901,1619.35979 C297.068901,1618.05602 296.014253,1617 294.714473,1617 L294.714473,1617 Z M294.090165,1624.55538 C294.090165,1627.07876 292.050256,1629.12403 289.534451,1629.12403 C287.018119,1629.12403 284.978736,1627.07876 284.978736,1624.55538 C284.978736,1624.25333 285.008524,1623.9599 285.063718,1623.677 L282,1623.677 L282,1629.74956 C282,1631.05333 283.053421,1632.11111 284.354603,1632.11111 L294.714473,1632.11111 C296.014253,1632.11111 297.068901,1631.05333 297.068901,1629.74956 L297.068901,1623.677 L294.005008,1623.677 C294.060378,1623.9599 294.090165,1624.25333 294.090165,1624.55538 L294.090165,1624.55538 Z" id="Fill-213"></path>
        </g>
    </g>
</svg>