<?xml version="1.0" encoding="UTF-8"?>
<svg width="17px" height="16px" viewBox="0 0 17 16" version="1.1" xmlns="http://www.w3.org/2000/svg" xmlns:xlink="http://www.w3.org/1999/xlink">
    <!-- Generator: Sketch 41.2 (35397) - http://www.bohemiancoding.com/sketch -->
    <title>Group 2</title>
    <desc>Created with Sketch.</desc>
    <defs></defs>
    <g id="Website" stroke="none" stroke-width="1" fill="none" fill-rule="evenodd" opacity="0.400000006">
        <g id="Mobile-Portrait_A_Rotator" transform="translate(-163.000000, -877.000000)" fill="#2D2D2D">
            <g id="Group-2" transform="translate(163.710007, 877.000000)">
                <path d="M0.0885431887,15.776 L3.46230168,15.776 L3.46230168,4.76977778 L0.0885431887,4.76977778 L0.0885431887,15.776 Z M3.57293683,1.71022222 C3.57293683,2.65422222 2.88492995,3.42026667 1.75280447,3.42026667 C0.687831543,3.42026667 4.54747351e-13,2.65422222 4.54747351e-13,1.71022222 C4.54747351e-13,0.741333333 0.71009884,0 1.79733906,0 C2.88492995,0 3.5510202,0.741333333 3.57293683,1.71022222 L3.57293683,1.71022222 Z" id="Fill-172"></path>
                <path d="M5.52369231,8.38044444 C5.52369231,7.008 5.47950838,5.85955556 5.43532445,4.86933333 L8.36461367,4.86933333 L8.52048474,6.4 L8.58693597,6.4 C9.03070391,5.68 10.1182948,4.62222222 11.9384272,4.62222222 C14.1577929,4.62222222 15.8225801,6.12977778 15.8225801,9.37066667 L15.8225801,15.8755556 L12.4486463,15.8755556 L12.4486463,9.776 C12.4486463,8.35733333 11.9603438,7.39022222 10.7394998,7.39022222 C9.80742931,7.39022222 9.25302621,8.04266667 9.00878728,8.67377778 C8.91971809,8.89777778 8.8974508,9.21422222 8.8974508,9.52888889 L8.8974508,15.8755556 L5.52369231,15.8755556 L5.52369231,8.38044444" id="Fill-173"></path>
            </g>
        </g>
    </g>
</svg>