<?xml version="1.0" encoding="UTF-8"?>
<svg width="12px" height="19px" viewBox="0 0 12 19" version="1.1" xmlns="http://www.w3.org/2000/svg" xmlns:xlink="http://www.w3.org/1999/xlink">
    <!-- Generator: Sketch 41.2 (35397) - http://www.bohemiancoding.com/sketch -->
    <title>Page 1</title>
    <desc>Created with Sketch.</desc>
    <defs></defs>
    <g id="Website" stroke="none" stroke-width="1" fill="none" fill-rule="evenodd">
        <g id="Detail_Complete" transform="translate(-214.000000, -484.000000)" fill="#FE4902">
            <path d="M220,484.585413 C216.699714,484.585413 214,487.285128 214,490.585413 C214,496.199128 219.378286,502.114556 219.613714,502.349985 C219.720857,502.457128 219.849143,502.521699 220,502.521699 C220.149429,502.521699 220.300286,502.457128 220.386,502.349985 C220.621714,502.093128 226,496.177985 226,490.585413 C226,487.285128 223.300286,484.585413 220,484.585413 Z M220,501.171413 C218.756571,499.692556 215.071429,494.935985 215.071429,490.585413 C215.071429,487.864556 217.278857,485.656842 220,485.656842 C222.720857,485.656842 224.928571,487.864556 224.928571,490.585413 C224.928571,494.935985 221.220857,499.713699 220,501.171413 Z M220,487.971699 C218.478857,487.971699 217.256571,489.192556 217.256571,490.714842 C217.256571,492.235985 218.477714,493.45827 220,493.45827 C221.521143,493.45827 222.743143,492.237128 222.743143,490.714842 C222.743143,489.193699 221.521143,487.971699 220,487.971699 Z M220,492.385699 C219.078,492.385699 218.328,491.635699 218.328,490.713699 C218.328,489.791985 219.078,489.041985 220,489.041985 C220.921714,489.041985 221.671714,489.791985 221.671714,490.713699 C221.670571,491.635699 220.920571,492.385699 220,492.385699 Z" id="Page-1"></path>
        </g>
    </g>
</svg>