<?xml version="1.0" encoding="UTF-8"?>
<svg width="9px" height="12px" viewBox="0 0 9 12" version="1.1" xmlns="http://www.w3.org/2000/svg" xmlns:xlink="http://www.w3.org/1999/xlink">
    <!-- Generator: Sketch 41.2 (35397) - http://www.bohemiancoding.com/sketch -->
    <title>Page 1</title>
    <desc>Created with Sketch.</desc>
    <defs></defs>
    <g id="Website" stroke="none" stroke-width="1" fill="none" fill-rule="evenodd" opacity="0.5">
        <g id="About" transform="translate(-212.000000, -497.000000)" fill="#FFFFFF">
            <path d="M216.014209,497 C213.806203,497 212,498.806203 212,501.014209 C212,504.769979 215.598261,508.727607 215.75577,508.885117 C215.827453,508.956799 215.91328,509 216.014209,509 C216.114182,509 216.215111,508.956799 216.272456,508.885117 C216.430158,508.713271 220.028418,504.755834 220.028418,501.014209 C220.028418,498.806203 218.222215,497 216.014209,497 Z M216.014209,508.096612 C215.182312,507.107205 212.716823,503.924893 212.716823,501.014209 C212.716823,499.193861 214.19367,497.716823 216.014209,497.716823 C217.834557,497.716823 219.311595,499.193861 219.311595,501.014209 C219.311595,503.924893 216.831005,507.12135 216.014209,508.096612 Z M216.014209,499.265543 C214.996511,499.265543 214.17876,500.082339 214.17876,501.100801 C214.17876,502.118499 214.995747,502.936251 216.014209,502.936251 C217.031907,502.936251 217.849467,502.119263 217.849467,501.100801 C217.849467,500.083104 217.031907,499.265543 216.014209,499.265543 Z M216.014209,502.218663 C215.397359,502.218663 214.895583,501.716887 214.895583,501.100037 C214.895583,500.483378 215.397359,499.981602 216.014209,499.981602 C216.630868,499.981602 217.132644,500.483378 217.132644,501.100037 C217.13188,501.716887 216.630103,502.218663 216.014209,502.218663 Z" id="Page-1"></path>
        </g>
    </g>
</svg>