<?xml version="1.0" encoding="UTF-8"?>
<svg width="11px" height="16px" viewBox="0 0 11 16" version="1.1" xmlns="http://www.w3.org/2000/svg" xmlns:xlink="http://www.w3.org/1999/xlink">
    <!-- Generator: Sketch 41.2 (35397) - http://www.bohemiancoding.com/sketch -->
    <title>Fill 176</title>
    <desc>Created with Sketch.</desc>
    <defs></defs>
    <g id="Website" stroke="none" stroke-width="1" fill="none" fill-rule="evenodd">
        <g id="Detail_Complete" transform="translate(-208.000000, -923.000000)" fill="#263545">
            <path d="M212.537885,933.29934 C212.164766,935.256944 211.709363,937.134877 210.361595,938.116524 C209.945915,935.155934 210.973056,932.93229 211.44974,930.572069 C210.636823,929.199185 211.54763,926.43777 213.262842,927.117809 C215.372453,927.955766 211.435553,932.220951 214.078596,932.753032 C216.837974,933.309299 217.964424,927.951498 216.253468,926.208719 C213.780669,923.693426 209.056388,926.151812 209.636638,929.754029 C209.778508,930.634666 210.685059,930.90213 209.999825,932.117096 C208.416553,931.765695 207.944125,930.513739 208.005129,928.844939 C208.10302,926.113399 210.452392,924.201321 212.808857,923.936704 C215.789552,923.602375 218.585816,925.033587 218.973122,927.844797 C219.407245,931.018789 217.628191,934.454554 214.440366,934.207008 C213.576376,934.140142 213.214606,933.711916 212.537885,933.29934" id="Fill-176"></path>
        </g>
    </g>
</svg>