<?xml version="1.0" encoding="UTF-8"?>
<svg width="11px" height="16px" viewBox="0 0 11 16" version="1.1" xmlns="http://www.w3.org/2000/svg" xmlns:xlink="http://www.w3.org/1999/xlink">
    <!-- Generator: Sketch 41.2 (35397) - http://www.bohemiancoding.com/sketch -->
    <title>Fill 176</title>
    <desc>Created with Sketch.</desc>
    <defs></defs>
    <g id="Website" stroke="none" stroke-width="1" fill="none" fill-rule="evenodd" opacity="0.400000006">
        <g id="Mobile-Portrait_A_Rotator" transform="translate(-21.000000, -877.000000)" fill="#2D2D2D">
            <path d="M25.537885,887.29934 C25.1647662,889.256944 24.7093625,891.134877 23.3615947,892.116524 C22.9459148,889.155934 23.9730557,886.93229 24.4497399,884.572069 C23.6368231,883.199185 24.5476304,880.43777 26.2628422,881.117809 C28.3724535,881.955766 24.4355529,886.220951 27.0785964,886.753032 C29.8379736,887.309299 30.9644238,881.951498 29.253468,880.208719 C26.7806688,877.693426 22.0563881,880.151812 22.6366375,883.754029 C22.7785078,884.634666 23.685059,884.90213 22.9998255,886.117096 C21.416553,885.765695 20.944125,884.513739 21.0051292,882.844939 C21.1030197,880.113399 23.4523917,878.201321 25.8088573,877.936704 C28.7895522,877.602375 31.5858156,879.033587 31.9731215,881.844797 C32.4072446,885.018789 30.6281912,888.454554 27.4403657,888.207008 C26.5763756,888.140142 26.2146063,887.711916 25.537885,887.29934" id="Fill-176"></path>
        </g>
    </g>
</svg>