<?xml version="1.0" encoding="UTF-8"?>
<svg width="19px" height="16px" viewBox="0 0 19 16" version="1.1" xmlns="http://www.w3.org/2000/svg" xmlns:xlink="http://www.w3.org/1999/xlink">
    <!-- Generator: Sketch 41.2 (35397) - http://www.bohemiancoding.com/sketch -->
    <title>Fill 211</title>
    <desc>Created with Sketch.</desc>
    <defs></defs>
    <g id="Website" stroke="none" stroke-width="1" fill="none" fill-rule="evenodd">
        <g id="Detail_Complete" transform="translate(-240.000000, -923.000000)" fill="#263545">
            <path d="M258.24773,925.572273 C257.60471,925.857593 256.914268,926.05161 256.191581,926.137206 C256.929443,925.69401 257.498488,924.990222 257.765939,924.151383 C257.073601,924.562243 256.307287,924.862779 255.491656,925.022558 C254.839151,924.324477 253.907815,923.888889 252.877843,923.888889 C250.901361,923.888889 249.298551,925.496188 249.298551,927.480109 C249.298551,927.761625 249.3289,928.035531 249.391495,928.298025 C246.41539,928.147757 243.776919,926.719258 242.010983,924.547026 C241.703699,925.075818 241.527295,925.69401 241.527295,926.352147 C241.527295,927.596139 242.158935,928.69557 243.118724,929.340392 C242.532607,929.321371 241.980634,929.15969 241.496946,928.891489 L241.496946,928.935238 C241.496946,930.675687 242.731773,932.127012 244.368726,932.45608 C244.069029,932.537872 243.75226,932.581621 243.426008,932.581621 C243.194596,932.581621 242.970772,932.560697 242.752638,932.516948 C243.207874,933.943545 244.529955,934.982108 246.096725,935.01064 C244.871382,935.97502 243.327373,936.547561 241.650588,936.547561 C241.362272,936.547561 241.075852,936.530442 240.79702,936.498105 C242.380862,937.515745 244.262504,938.111111 246.28451,938.111111 C252.870256,938.111111 256.47231,932.640587 256.47231,927.894774 C256.47231,927.740701 256.468517,927.584726 256.460929,927.430654 C257.160855,926.924688 257.767836,926.293181 258.24773,925.572273" id="Fill-211"></path>
        </g>
    </g>
</svg>