<?xml version="1.0" encoding="UTF-8"?>
<svg width="19px" height="16px" viewBox="0 0 19 16" version="1.1" xmlns="http://www.w3.org/2000/svg" xmlns:xlink="http://www.w3.org/1999/xlink">
    <!-- Generator: Sketch 41.2 (35397) - http://www.bohemiancoding.com/sketch -->
    <title>Fill 211</title>
    <desc>Created with Sketch.</desc>
    <defs></defs>
    <g id="Website" stroke="none" stroke-width="1" fill="none" fill-rule="evenodd" opacity="0.400000006">
        <g id="Mobile-Portrait_A_Rotator" transform="translate(-53.000000, -877.000000)" fill="#2D2D2D">
            <path d="M71.2477303,879.572273 C70.6047096,879.857593 69.9142684,880.05161 69.1915814,880.137206 C69.929443,879.69401 70.4984879,878.990222 70.7659389,878.151383 C70.073601,878.562243 69.3072872,878.862779 68.4916562,879.022558 C67.8391514,878.324477 66.9078146,877.888889 65.8778434,877.888889 C63.9013608,877.888889 62.2985511,879.496188 62.2985511,881.480109 C62.2985511,881.761625 62.3289001,882.035531 62.3914951,882.298025 C59.4153903,882.147757 56.7769189,880.719258 55.0109829,878.547026 C54.7036987,879.075818 54.5272948,879.69401 54.5272948,880.352147 C54.5272948,881.596139 55.1589346,882.69557 56.1187236,883.340392 C55.5326074,883.321371 54.9806338,883.15969 54.4969457,882.891489 L54.4969457,882.935238 C54.4969457,884.675687 55.7317731,886.127012 57.3687255,886.45608 C57.0690286,886.537872 56.7522603,886.581621 56.4260079,886.581621 C56.1945963,886.581621 55.9707719,886.560697 55.7526381,886.516948 C56.207874,887.943545 57.5299549,888.982108 59.0967252,889.01064 C57.8713819,889.97502 56.3273734,890.547561 54.6505878,890.547561 C54.3622717,890.547561 54.0758525,890.530442 53.7970205,890.498105 C55.3808621,891.515745 57.2625038,892.111111 59.28451,892.111111 C65.8702561,892.111111 69.4723102,886.640587 69.4723102,881.894774 C69.4723102,881.740701 69.4685166,881.584726 69.4609293,881.430654 C70.1608546,880.924688 70.7678358,880.293181 71.2477303,879.572273" id="Fill-211"></path>
        </g>
    </g>
</svg>